<svg width="268" height="104" viewBox="0 0 268 104" fill="none" xmlns="http://www.w3.org/2000/svg">
<path d="M14.0054 0L14.0915 0.369858C15.6896 7.23237 21.1167 12.5488 28.0107 14.0053L27.6311 14.1281C21.0895 16.2445 15.9993 21.4307 14.0054 28.0106C12.5489 21.1166 7.23244 15.6896 0.369923 14.0914L6.52848e-05 14.0053C6.512 11.9015 11.6527 6.85339 13.8746 0.380797L14.0054 0Z" fill="#FDE100"/>
<path d="M6.50537 75L6.54538 75.1718C7.28769 78.3594 9.80851 80.8288 13.0107 81.5053L12.8344 81.5623C9.79589 82.5454 7.43153 84.9543 6.50537 88.0106C5.82886 84.8084 3.35942 82.2876 0.171858 81.5453L6.58289e-05 81.5053C3.02479 80.5281 5.41259 78.1833 6.44465 75.1769L6.50537 75Z" fill="#FDE100"/>
<path d="M133 96.4282L133.022 96.5221C133.427 98.2631 134.804 99.6119 136.553 99.9814L136.457 100.013C134.797 100.549 133.506 101.865 133 103.535C132.63 101.786 131.282 100.409 129.541 100.003L129.447 99.9814C131.099 99.4476 132.403 98.1669 132.967 96.5248L133 96.4282Z" fill="#FDE100"/>
<path d="M261.505 13.5054L261.541 13.6573C262.197 16.476 264.426 18.6598 267.258 19.258L267.102 19.3084C264.415 20.1777 262.324 22.3079 261.505 25.0106C260.907 22.1789 258.723 19.9498 255.905 19.2934L255.753 19.258C258.428 18.3938 260.539 16.3204 261.452 13.6618L261.505 13.5054Z" fill="#FDE100"/>
<path d="M134.247 6.75269L134.277 6.88132C134.833 9.26806 136.721 11.1171 139.118 11.6237L138.986 11.6664C136.711 12.4024 134.941 14.2062 134.247 16.4946C133.741 14.0969 131.892 12.2094 129.505 11.6536L129.376 11.6237C131.641 10.8919 133.429 9.13626 134.202 6.88512L134.247 6.75269Z" fill="#FDE100"/>
</svg>
